# xmcd
#
# Track frame offsets:
#	150
#	12857
#	26287
#	39392
#	51907
#	62600
#	72375
#	83215
#	96765
#	110604
#	123305
#	135697
#	148832
#	161427
#
# Disc length: 2298
#
# Revision: 1
# Processed by: cddbd v1.5.1PL0 Copyright (c) Steve Scherf et al.
# Submitted via: Grip 2.96
# Normalized: r0:DSETVAR1
#
DISCID=bb08f80e
DTITLE=Various Artist - The Essential Country Collection - cd2
DYEAR=1900
DGENRE=
TTITLE0=Charlie Rich - The most beautiful Girl in the World
TTITLE1=T. Graham Brown - I wish that I could hurt that way again
TTITLE2=Bobby Bare - Detroit City
TTITLE3=Jerry Wallace - In the misty Moonlight
TTITLE4=Patsy Cline - Honky tonk merry go round
TTITLE5=Merle Haggard - Mama tried
TTITLE6=Roger Miller - King of the Road
TTITLE7=The Kendalls - Heartaches by the number
TTITLE8=Lee Greenwood - Dixie Road
TTITLE9=The Marshall Tucker Band - Long hard ride
TTITLE10=Jerry Fuller and Wynn Stewart - Wishful thinking
TTITLE11=Conway Twitty - Danny Boy
TTITLE12=Patsy Cline - Just a closer walk with thee
TTITLE13=Roger Miller - Husbands and Wives
EXTD=
EXTT0=
EXTT1=
EXTT2=
EXTT3=
EXTT4=
EXTT5=
EXTT6=
EXTT7=
EXTT8=
EXTT9=
EXTT10=
EXTT11=
EXTT12=
EXTT13=
PLAYORDER=
